<svg width="40" height="40" viewBox="0 0 40 40" fill="none" xmlns="http://www.w3.org/2000/svg">
<path d="M20 40C31.0457 40 40 31.0457 40 20C40 8.95431 31.0457 0 20 0C8.95431 0 0 8.95431 0 20C0 31.0457 8.95431 40 20 40Z" fill="white"/>
<path d="M19.9985 38.7074C30.3303 38.7074 38.706 30.3318 38.706 20C38.706 9.6681 30.3303 1.29248 19.9985 1.29248C9.66664 1.29248 1.29102 9.6681 1.29102 20C1.29102 30.3318 9.66664 38.7074 19.9985 38.7074Z" fill="url(#paint0_linear)"/>
<mask id="mask0" mask-type="alpha" maskUnits="userSpaceOnUse" x="1" y="1" width="38" height="38">
<path d="M19.9985 38.7074C30.3303 38.7074 38.706 30.3318 38.706 20C38.706 9.6681 30.3303 1.29248 19.9985 1.29248C9.66664 1.29248 1.29102 9.6681 1.29102 20C1.29102 30.3318 9.66664 38.7074 19.9985 38.7074Z" fill="white"/>
</mask>
<g mask="url(#mask0)">
<path d="M16.6673 27.3522C17.7476 25.5554 20.2279 22.1114 26.1341 17.2718C35.0465 9.96899 26.6334 3.29118 17.5966 6.84921C16.6298 7.22984 13.9507 5.7067 11.4693 7.31198C9.86861 8.34753 10.4918 9.15888 9.86852 9.97029C9.24526 10.7817 6.84218 10.7343 6.31604 12.8415C6.00437 14.0898 6.86729 15.3972 6.75211 16.3366C6.63693 17.276 5.7261 18.1231 5.68279 19.3634C5.6058 21.5681 7.32805 23.4177 9.52953 23.4946C9.54158 25.6387 11.2377 27.4136 13.3933 27.4889C14.0812 27.5129 14.7345 27.361 15.31 27.0735C15.8995 27.6167 16.4056 27.7874 16.6673 27.3522Z" fill="url(#paint1_linear)"/>
<path fill-rule="evenodd" clip-rule="evenodd" d="M16.8825 25.4873C16.8825 24.3649 16.8443 18.8285 16.8462 18.7349C13.7646 19.1891 13.8269 13.3274 16.9449 14.7617C17.6308 15.1982 19.5639 14.7617 19.3768 11.1449C22.7442 14.7617 26.6536 10.5433 26.9889 13.9807C27.4467 18.6744 26.9862 23.5865 24.0692 23.5868C23.79 23.5868 23.473 23.5552 23.1183 23.4918C23.1183 24.1986 23.1183 25.03 23.1183 25.4873C23.1183 26.7345 25.3632 27.358 25.3632 27.358C25.3632 27.358 21.4856 31.0117 19.8757 30.9921C18.2658 30.9724 14.6376 27.358 14.6376 27.358C14.6376 27.358 16.8825 26.7345 16.8825 25.4873Z" fill="url(#paint2_linear)"/>
<mask id="mask1" mask-type="alpha" maskUnits="userSpaceOnUse" x="14" y="11" width="14" height="20">
<path fill-rule="evenodd" clip-rule="evenodd" d="M16.8825 25.4873C16.8825 24.3649 16.8443 18.8285 16.8462 18.7349C13.7646 19.1891 13.8269 13.3274 16.9449 14.7617C17.6308 15.1982 19.5639 14.7617 19.3768 11.1449C22.7442 14.7617 26.6536 10.5433 26.9889 13.9807C27.4467 18.6744 26.9862 23.5865 24.0692 23.5868C23.79 23.5868 23.473 23.5552 23.1183 23.4918C23.1183 24.1986 23.1183 25.03 23.1183 25.4873C23.1183 26.7345 25.3632 27.358 25.3632 27.358C25.3632 27.358 21.4856 31.0117 19.8757 30.9921C18.2658 30.9724 14.6376 27.358 14.6376 27.358C14.6376 27.358 16.8825 26.7345 16.8825 25.4873Z" fill="white"/>
</mask>
<g mask="url(#mask1)">
<g style="mix-blend-mode:multiply" opacity="0.7">
<path fill-rule="evenodd" clip-rule="evenodd" d="M23.1186 23.4917C20.584 22.9423 18.7992 21.6085 18.7992 21.6085C18.7992 21.6085 19.876 24.24 23.1148 24.7389L23.1186 23.4917Z" fill="url(#paint3_linear)"/>
</g>
</g>
<path fill-rule="evenodd" clip-rule="evenodd" d="M31.474 31.0995C32.3789 33.1102 32.8459 39.2061 32.8459 39.2061H7.1543C7.1543 39.2061 7.62132 33.1102 8.52618 31.0995C9.31883 29.3382 14.5423 27.3158 16.0731 26.7345C16.9573 27.7232 18.2237 28.3558 20.0001 28.3558C21.7765 28.3558 23.0429 27.7232 23.9271 26.7345C25.4579 27.3158 30.6814 29.3382 31.474 31.0995Z" fill="url(#paint4_linear)"/>
<mask id="mask2" mask-type="alpha" maskUnits="userSpaceOnUse" x="7" y="26" width="26" height="14">
<path fill-rule="evenodd" clip-rule="evenodd" d="M31.474 31.0995C32.3789 33.1102 32.8459 39.2061 32.8459 39.2061H7.1543C7.1543 39.2061 7.62132 33.1102 8.52618 31.0995C9.31883 29.3382 14.5423 27.3158 16.0731 26.7345C16.9573 27.7232 18.2237 28.3558 20.0001 28.3558C21.7765 28.3558 23.0429 27.7232 23.9271 26.7345C25.4579 27.3158 30.6814 29.3382 31.474 31.0995Z" fill="white"/>
</mask>
<g mask="url(#mask2)">
</g>
<path fill-rule="evenodd" clip-rule="evenodd" d="M8.28584 31.1403C8.96449 29.8497 11.1983 28.4953 13.2639 27.5825C14.294 27.1273 17.3808 40.204 17.3808 40.204H7.03968C7.03968 40.204 6.91507 33.7469 8.28584 31.1403Z" fill="url(#paint5_linear)"/>
</g>
<defs>
<linearGradient id="paint0_linear" x1="38.706" y1="38.7074" x2="38.706" y2="1.29248" gradientUnits="userSpaceOnUse">
<stop stop-color="#F8AB8A"/>
<stop offset="1" stop-color="#FFD2C2"/>
</linearGradient>
<linearGradient id="paint1_linear" x1="30.1055" y1="6.11902" x2="29.3394" y2="28.0558" gradientUnits="userSpaceOnUse">
<stop stop-color="#1D0024"/>
<stop offset="1" stop-color="#100014"/>
</linearGradient>
<linearGradient id="paint2_linear" x1="14.5703" y1="11.1449" x2="14.5703" y2="30.9922" gradientUnits="userSpaceOnUse">
<stop stop-color="#E6864E"/>
<stop offset="1" stop-color="#EB965E"/>
</linearGradient>
<linearGradient id="paint3_linear" x1="21.6262" y1="21.7514" x2="22.2722" y2="24.6624" gradientUnits="userSpaceOnUse">
<stop stop-color="#E68349"/>
<stop offset="1" stop-color="#F09960"/>
</linearGradient>
<linearGradient id="paint4_linear" x1="32.8459" y1="39.2061" x2="32.8459" y2="26.7345" gradientUnits="userSpaceOnUse">
<stop stop-color="#FFC9B3"/>
<stop offset="1" stop-color="#FFD2C2"/>
</linearGradient>
<linearGradient id="paint5_linear" x1="17.3808" y1="40.204" x2="17.3808" y2="27.5672" gradientUnits="userSpaceOnUse">
<stop stop-color="#FCF2EB"/>
<stop offset="1" stop-color="#FFF9F5"/>
</linearGradient>
</defs>
</svg>
